<svg xmlns="http://www.w3.org/2000/svg" version="1.1" xmlns:xlink="http://www.w3.org/1999/xlink" xmlns:svgjs="http://svgjs.dev/svgjs" width="100%" height="100%" viewBox="0 0 1000 600"><rect width="1000" height="600" x="0" y="0" fill="#ffffff"/><g><circle r="166.66666666666666" cx="387.1661478678385" cy="409.38833874963217" fill="#8aaae5" transform="matrix(0.5668947839959254,0,0,0.5668947839959255,0,67.9198824087913)"/><path d="M326.0072093968205 484.3883123336669L326.0072093968205 334.3883095848858L348.67534431982483 334.3883095848858L430.3707021019372 459.88871220496287L430.3707021019372 334.3883095848858L448.3250659217473 334.3883095848858L448.3250659217473 484.3883123336669L425.62690697897733 484.3883123336669L343.931549196865 358.67774157523087L343.931549196865 484.3883123336669L326.0072093968205 484.3883123336669Z " fill="#ffffff" transform="matrix(0.5668947839959254,0,0,0.5668947839959255,0,67.9198824087913)"/><path d="M637.1661381073854 443.29656062721756L637.1661381073854 335.3605104030993L653.4775308053858 335.3605104030993L712.2633579991059 425.66729381719347L712.2633579991059 335.3605104030993L725.1828451956677 335.3605104030993L725.1828451956677 443.29656062721756L708.8498480040278 443.29656062721756L650.0640208103075 352.83854575764525L650.0640208103075 443.29656062721756L637.1661381073854 443.29656062721756ZM787.5334138399442 366.8166531425541L787.5334138399442 366.8166531425541Q803.1102537541934 366.8166531425541 813.1779477903102 376.7547202168324Q823.2456418264269 386.71439178475043 823.2456418264269 404.2572406202156L823.2456418264269 404.2572406202156Q823.2456418264269 422.85870964402784 812.9402983602731 433.83379241301344Q802.656559387759 444.80887518199904 786.323562196119 444.80887518199904L786.323562196119 444.80887518199904Q770.7683267755095 444.80887518199904 760.8734686885106 434.52513620948497Q751.0002150951516 424.2413972369709 751.0002150951516 406.61213042694675L751.0002150951516 406.61213042694675Q751.0002150951516 388.464355769569 761.0679091312683 377.64050445606154Q771.1356031673849 366.8166531425541 787.5334138399442 366.8166531425541ZM786.4747936515972 377.44606401330395L786.4747936515972 377.44606401330395Q777.1416523992315 377.44606401330395 770.1417964599572 384.66196488897555Q763.1635450143226 391.8778657646472 763.1635450143226 404.4948900502527L763.1635450143226 404.4948900502527Q763.1635450143226 417.0254963612993 769.990565004479 425.60248033627425Q776.8391894882751 434.1794643112492 787.7062497890621 434.1794643112492L787.7062497890621 434.1794643112492Q797.7307348378994 434.1794643112492 804.4065233725776 426.59628704370203Q811.0823119072559 418.9915052825152 811.0823119072559 406.76336188242493L811.0823119072559 406.76336188242493Q811.0823119072559 399.7851104367904 808.9218625432823 394.0815241159002Q806.7614131793088 388.37793779501004 803.2182762223921 384.81319634445373Q799.6967437591153 381.24845489389736 795.3758450311682 379.34725945360066Q791.0333418095813 377.44606401330395 786.4747936515972 377.44606401330395ZM871.6181030857946 366.8166531425541L871.6181030857946 366.8166531425541Q879.9790421243722 366.8166531425541 885.790650913461 368.7394530764906Q891.6022597025499 370.68385750406674 894.7565157739513 374.39983041010123Q897.9107718453525 378.1374078097755 899.271854944656 382.69595596775963Q900.6329380439593 387.2328996321041 900.6329380439593 393.17413538303134L900.6329380439593 393.17413538303134L900.6329380439593 443.29656062721756L891.8183046389471 443.29656062721756L888.9449069848623 436.4695406370612Q879.7413926943351 444.80887518199904 867.8157122052011 444.80887518199904L867.8157122052011 444.80887518199904Q857.1863013344513 444.80887518199904 849.8191690033015 438.3923405709976Q842.4520366721517 431.9758059599962 842.4520366721517 423.39882198502124L842.4520366721517 423.39882198502124Q842.4520366721517 418.84027382703704 844.137187176051 415.18911440192176Q845.8007331863106 411.5379549768065 848.9549892577121 409.1182516891561Q852.1092453291134 406.676943907866 856.1276811461042 404.9701889103269Q860.146116963095 403.2634339127878 865.5040313857494 402.3560451799189Q870.8619458084038 401.44865644705004 876.2630692183377 401.05977556153476Q881.6425881346318 400.69249916965924 888.1023317329126 400.69249916965924L888.1023317329126 400.69249916965924L888.1023317329126 394.77286791237174Q888.1023317329126 392.1803286756035 887.9078912901551 390.2791332353068Q887.7350553410372 388.37793779501004 886.6548306590504 385.7205850773226Q885.5962104707033 383.06323235963515 883.7814330049656 381.35647736209603Q881.945051045588 379.64972236455696 878.3154961141125 378.3966617334523Q874.6643366889972 377.14360110234765 869.6520941645787 377.14360110234765L869.6520941645787 377.14360110234765Q861.8960809479136 377.14360110234765 849.6031240669041 380.55711109742583L849.6031240669041 380.55711109742583L847.2482342601729 371.4400147814575Q859.6924225966605 366.8166531425541 871.6181030857946 366.8166531425541ZM888.1023317329126 427.35244432109283L888.1023317329126 410.1120583965839L883.4789700940092 410.1120583965839Q879.1364668724225 410.1120583965839 875.9606063073813 410.2632898520621Q872.7631412487005 410.4145213075402 868.4638470143932 411.1274695976515Q864.1861572737256 411.8620223814025 861.4423865814791 413.13668750614687Q858.7202203828725 414.432957124531 856.7758159552963 416.8958693994609Q854.8314115277201 419.38038616803044 854.8314115277201 422.7938961631086L854.8314115277201 422.7938961631086Q854.8314115277201 427.56848925749017 859.6708181030208 431.3060666571644Q864.4886201846818 435.0220395631989 871.16440871936 435.0220395631989L871.16440871936 435.0220395631989Q880.9728488318 435.0220395631989 888.1023317329126 427.35244432109283L888.1023317329126 427.35244432109283ZM1019.1983991388273 334.3883081893112L1019.1983991388273 334.3883081893112Q1031.6641919689546 334.3883081893112 1046.0095757457389 338.7092069172583L1046.0095757457389 338.7092069172583L1041.83990847327 350.4836559509141Q1028.1642639993174 346.5300336148425 1018.1397789504803 346.5300336148425L1018.1397789504803 346.5300336148425Q1006.9054422578179 346.5300336148425 999.1062200538734 351.2830222155843Q991.3286023435686 356.0360108163261 991.3286023435686 363.55437460295406L991.3286023435686 363.55437460295406Q991.3286023435686 367.724041875423 993.8347236057779 370.98632041502304Q996.3408448679872 374.2485989546231 1000.445698659537 376.30102585039793Q1004.5505524510867 378.3534527461728 1009.7788399119027 380.3626706546682Q1015.0287318663584 382.3718885631636 1020.4514597699321 384.057039067063Q1025.8957921671454 385.7205850773226 1031.1240796279612 388.3131243140909Q1036.3739715824172 390.88405905721936 1040.4788253739666 393.97350164770154Q1044.5620746718769 397.04133974454396 1047.068195934086 401.96716429440363Q1049.5743171962954 406.91459333790306 1049.5743171962954 413.13668750614687L1049.5743171962954 413.13668750614687Q1049.5743171962954 417.47919072773374 1048.213234096992 421.75688046840133Q1046.8521509976886 426.0561747027087 1043.6546859390078 430.2690509624571Q1040.4788253739666 434.4819272222055 1035.7690457605045 437.67939228088636Q1031.0592661470423 440.85525284592745 1023.8649697650102 442.8428662607831Q1016.692277876618 444.80887518199904 1007.877644471606 444.80887518199904Q999.063011066594 444.80887518199904 991.6742742418044 442.99409771626125Q984.2639329233751 441.1793202505235 975.0820231264876 437.5281608254082L975.0820231264876 437.5281608254082L979.4677353353537 424.99755451436164Q998.4580852446813 432.0622239345551 1009.4763770009464 432.0622239345551L1009.4763770009464 432.0622239345551Q1021.0347810982049 432.0622239345551 1028.272286467516 427.417257802012Q1035.5313963304675 422.7938961631086 1035.5313963304675 415.03788294644363L1035.5313963304675 415.03788294644363Q1035.5313963304675 409.8744089665468 1032.3123267781466 406.11522707323286Q1029.0716527321865 402.3560451799189 1023.9513877395691 400.0443643604672Q1018.8311227469518 397.73268354101555 1012.5874240850683 395.70186113888036Q1006.3653299168245 393.692643230385 1000.1648402422204 391.3809624109333Q993.985955061256 389.0692815914816 988.8656900686389 386.0230479882789Q983.7238205823818 382.99841887871594 980.5047510300611 377.8349448988192Q977.2856814777405 372.64986642528265 977.2856814777405 365.6716149796481L977.2856814777405 365.6716149796481Q977.2856814777405 359.4495208114043 980.267101600024 353.7459344905141Q983.2701262159472 348.042348169624 988.5848316513222 343.76465842895635Q993.899537086697 339.465364194649 1001.8931997333992 336.9160339451602Q1009.8652578864617 334.3883081893112 1019.1983991388273 334.3883081893112ZM1106.1780905324022 366.8166531425541L1106.1780905324022 366.8166531425541Q1111.6440274232555 366.8166531425541 1116.008135138482 368.13452725457796Q1120.3722428537085 369.47400586024156 1123.267245001433 371.52643275601645Q1126.1406426555177 373.5788596517913 1128.2362785385722 376.8843471786708Q1130.310309927987 380.18983470555037 1131.4121391036133 383.2576728023928Q1132.5139682792396 386.3255108992352 1133.140498594792 390.668014120822Q1133.7454244167047 394.98891284876913 1133.8966558721827 398.18637790745Q1134.047887327661 401.3622384724911 1134.047887327661 405.7047416940779L1134.047887327661 405.7047416940779L1134.047887327661 411.6243729513654L1082.4779610096125 411.6243729513654Q1082.4779610096125 415.72922674291516 1084.3359474626297 419.7908715471854Q1086.193933915647 423.8525163514557 1089.5642349234458 427.2228173592544Q1092.956140424884 430.6147228606929 1098.4652863030167 432.73196323738694Q1103.974432181149 434.87080810772073 1110.6502207158273 434.87080810772073L1110.6502207158273 434.87080810772073Q1118.5574653879708 434.87080810772073 1127.739375184858 432.1270374154743L1127.739375184858 432.1270374154743L1129.9430335361112 440.6392079095301Q1117.714890136021 444.80887518199904 1105.9404411023652 444.80887518199904L1105.9404411023652 444.80887518199904Q1097.6659200383465 444.80887518199904 1091.249385427345 442.60521683074603Q1084.8328508163436 440.401558479493 1080.9224374675514 436.88002601621616Q1077.0120241187594 433.3368890592995 1074.5059028565502 428.4110645094398Q1071.978177100701 423.4636354659404 1071.0491838741923 418.5810199033602Q1070.098586154044 413.6767998471403 1070.098586154044 408.2108629562872L1070.098586154044 408.2108629562872Q1070.098586154044 399.7851104367904 1072.151013049819 392.7852544975161Q1074.1818354519542 385.80700305188157 1077.6817634215913 381.0540144511397Q1081.1816913912285 376.30102585039793 1085.8482620174113 373.0387473107979Q1090.514832643594 369.77646877119787 1095.656702129851 368.2857587100561Q1100.7769671224682 366.8166531425541 1106.1780905324022 366.8166531425541ZM1103.499133321075 377.5972954687821L1103.499133321075 377.5972954687821Q1096.8233447863968 377.5972954687821 1092.005542704736 381.2700593875371Q1087.1877406230747 384.96442779993185 1084.9840822718215 390.4303646907849Q1082.7804239205689 395.896301581638 1082.7804239205689 402.2048137244407L1082.7804239205689 402.2048137244407L1121.9709753830489 402.2048137244407Q1121.9709753830489 377.5972954687821 1103.499133321075 377.5972954687821ZM1188.4912112997943 366.73023516799515L1188.4912112997943 366.73023516799515Q1197.4570761602845 366.73023516799515 1209.2315251939403 372.7362843998416L1209.2315251939403 372.7362843998416L1210.8302577232807 368.2641542164164L1219.5584731537338 368.2641542164164L1219.5584731537338 448.0063402406799Q1219.5584731537338 450.2748120728521 1219.4072416982558 452.4136569431859Q1219.2560102427774 454.53089731988 1218.4998529653867 458.4197061750324Q1217.743695687996 462.286910536545 1216.3826125886926 465.48437559522586Q1214.9999249957498 468.66023616026695 1212.2345498098634 472.35460457266174Q1209.4691746239773 476.0273684914168 1205.7099927306635 478.53348975362604Q1201.9508108373493 481.0396110158354 1195.9879705927824 482.7247615197347Q1190.0251303482155 484.3883075299944 1182.6579980170657 484.3883075299944L1182.6579980170657 484.3883075299944Q1171.034780438888 484.3883075299944 1159.4115628607103 479.52729646105394L1159.4115628607103 479.52729646105394L1162.9114908303475 470.4966181196445Q1172.2446320827132 473.9749415956419 1181.0592654877253 473.9749415956419L1181.0592654877253 473.9749415956419Q1207.1142848172462 473.9749415956419 1207.1142848172462 445.19775606751426L1207.1142848172462 445.19775606751426L1207.1142848172462 439.6454012021023Q1197.3058447048065 444.80887518199904 1187.281359655969 444.80887518199904L1187.281359655969 444.80887518199904Q1182.4203485870285 444.80887518199904 1177.7969869481253 443.55581455089435Q1173.152020815582 442.3027539197897 1168.7230996194364 439.3861472784254Q1164.272573929651 436.4695406370612 1160.9670864027712 432.08382842819486Q1157.6615988758917 427.7197207129683 1155.6523809673963 421.0007231910106Q1153.6431630589009 414.28172566905283 1153.6431630589009 406.0072046050342L1153.6431630589009 406.0072046050342Q1153.6431630589009 397.27898917458106 1156.0628663465513 390.2359242480273Q1158.5041741278415 383.2144638151133 1162.220147033876 378.95837856808544Q1165.9361199399104 374.70229332105754 1170.7755265152111 371.82889566697276Q1175.5933285968722 368.93389351924816 1180.0006452993782 367.83206434362165Q1184.4079620018842 366.73023516799515 1188.4912112997943 366.73023516799515ZM1189.2689730708248 376.84113819139134L1189.2689730708248 376.84113819139134Q1178.7043756809942 376.84113819139134 1172.2446320827132 384.42431545893845Q1165.7848884844325 392.0290972201254 1165.7848884844325 404.5597035311719L1165.7848884844325 404.5597035311719Q1165.7848884844325 412.92064256974953 1168.44224120212 419.5964311044278Q1171.0995939198074 426.272219639106 1176.8895982152562 430.42028241793525Q1182.6579980170657 434.5683451967644 1190.7812876256062 434.5683451967644L1190.7812876256062 434.5683451967644Q1199.0558086896249 434.5683451967644 1207.1142848172462 430.2258419751776L1207.1142848172462 430.2258419751776L1207.1142848172462 381.09722343841923Q1196.7009188828938 376.84113819139134 1189.2689730708248 376.84113819139134ZM1296.5136794984714 427.80613868752727L1296.5136794984714 368.2641542164164L1308.957867834959 368.2641542164164L1308.957867834959 443.29656062721756L1300.229652404506 443.29656062721756L1297.5722996868185 436.98804848441483Q1283.2053114163946 444.80887518199904 1271.0635859908634 444.80887518199904L1271.0635859908634 444.80887518199904Q1264.9063053035388 444.80887518199904 1260.3477571455542 442.8860752480626Q1255.7892089875704 440.9416708204864 1253.283087725361 438.0466686727619Q1250.776966463152 435.17327101867704 1249.26465190837 430.72274532889156Q1247.7523373535887 426.272219639106 1247.320247480794 422.2537838221152Q1246.909762101639 418.2353480051244 1246.909762101639 413.0718740252277L1246.909762101639 413.0718740252277L1246.909762101639 368.2641542164164L1259.3755549317661 368.2641542164164L1259.3755549317661 413.9792627580966Q1259.3755549317661 433.66095646389556 1276.464709400797 433.66095646389556L1276.464709400797 433.66095646389556Q1285.2577383121693 433.66095646389556 1296.5136794984714 427.80613868752727L1296.5136794984714 427.80613868752727ZM1345.0373722133172 368.2641542164164L1347.3922620200483 373.8813225627476Q1356.898239221532 366.8166531425541 1368.348620850592 366.8166531425541L1368.348620850592 366.8166531425541Q1376.255865522735 366.8166531425541 1382.7156091210159 369.77646877119787L1382.7156091210159 369.77646877119787L1378.9132182404223 379.7145358454762Q1372.9935869831352 377.44606401330395 1366.6202613594132 377.44606401330395L1366.6202613594132 377.44606401330395Q1357.1142841579294 377.44606401330395 1348.7533451193517 382.69595596775963L1348.7533451193517 382.69595596775963L1348.7533451193517 443.29656062721756L1336.3091567828642 443.29656062721756L1336.3091567828642 368.2641542164164L1345.0373722133172 368.2641542164164ZM1429.8782187365582 366.8166531425541L1429.8782187365582 366.8166531425541Q1445.4550586508076 366.8166531425541 1455.5227526869244 376.7547202168324Q1465.5688422294015 386.71439178475043 1465.5688422294015 404.2572406202156L1465.5688422294015 404.2572406202156Q1465.5688422294015 422.85870964402784 1455.2851032568874 433.83379241301344Q1445.0013642843733 444.80887518199904 1428.6683670927332 444.80887518199904L1428.6683670927332 444.80887518199904Q1413.0915271784838 444.80887518199904 1403.2182735851247 434.52513620948497Q1393.3450199917656 424.2413972369709 1393.3450199917656 406.61213042694675L1393.3450199917656 406.61213042694675Q1393.3450199917656 388.464355769569 1403.4127140278824 377.64050445606154Q1413.4804080639992 366.8166531425541 1429.8782187365582 366.8166531425541ZM1428.8195985482116 377.44606401330395L1428.8195985482116 377.44606401330395Q1419.4648528022062 377.44606401330395 1412.4866013565716 384.66196488897555Q1405.5083499109369 391.8778657646472 1405.5083499109369 404.4948900502527L1405.5083499109369 404.4948900502527Q1405.5083499109369 417.0254963612993 1412.3353699010931 425.60248033627425Q1419.1623898912499 434.1794643112492 1430.0294501920366 434.1794643112492L1430.0294501920366 434.1794643112492Q1440.0539352408737 434.1794643112492 1446.7513282691916 426.59628704370203Q1453.42711680387 418.9915052825152 1453.42711680387 406.76336188242493L1453.42711680387 406.76336188242493Q1453.42711680387 399.7851104367904 1451.2666674398965 394.0815241159002Q1449.1062180759232 388.37793779501004 1445.5630811190063 384.81319634445373Q1442.0415486557295 381.24845489389736 1437.6990454341426 379.34725945360066Q1433.3781467061958 377.44606401330395 1428.8195985482116 377.44606401330395ZM1520.2714201252115 366.8166531425541L1520.2714201252115 366.8166531425541Q1521.870152654552 366.8166531425541 1523.2744447411346 366.8598621298336Q1524.6787368277173 366.88146662347333 1525.9966109397415 367.03269807895146Q1527.3360895454048 367.18392953442964 1528.2866872655536 367.27034750898855Q1529.2372849857015 367.33516098990776 1530.4903456168063 367.57281041994486Q1531.743406247911 367.7888553563422 1532.305123082544 367.9184823181806Q1532.8668399171775 368.0265047863793 1534.2063185228408 368.37217668461506Q1535.524192634865 368.7178485828508 1535.8266555458213 368.78266206377003Q1536.1291184567772 368.86908003832895 1537.6198285179194 369.3227744047634Q1539.1105385790606 369.77646877119787 1539.326583515458 369.8412822521171L1539.326583515458 369.8412822521171L1536.1291184567772 379.34725945360066Q1525.9534019524617 376.53867528043503 1518.2189932294368 376.53867528043503L1518.2189932294368 376.53867528043503Q1513.7252585523715 376.53867528043503 1510.2685395700141 377.44606401330395Q1506.8118205876563 378.3534527461728 1504.9538341346392 379.64972236455696Q1503.0958476816218 380.94599198294105 1501.929205025076 382.6527469804802Q1500.7409578748907 384.3595019780193 1500.395285976655 385.6557715964034Q1500.071218572059 386.93043672114777 1500.071218572059 388.1618928586127L1500.071218572059 388.1618928586127Q1500.071218572059 391.27293994273464 1503.2902881243795 393.692643230385Q1506.5093576767 396.1339510116751 1511.3487642520008 397.6462655664566Q1516.1665663336616 399.15858012123806 1521.783734679993 401.2542160042924Q1527.4009030263242 403.34985188734674 1532.218705107985 405.6615327067984Q1537.058111683286 407.9732135262501 1540.2771812356068 412.1644852923588Q1543.4962507879272 416.3341525648277 1543.4962507879272 421.8000894556808L1543.4962507879272 421.8000894556808Q1543.4962507879272 424.9111365398027 1542.718489016897 427.8493476748067Q1541.9191227522265 430.765954316171 1539.672255413694 433.96341937485187Q1537.4253880751617 437.13927993989296 1533.9038556118844 439.45096075934464Q1530.360718654968 441.7842460724361 1524.4410873976803 443.29656062721756Q1518.5214561403927 444.80887518199904 1510.8518608982868 444.80887518199904L1510.8518608982868 444.80887518199904Q1499.2286433201093 444.80887518199904 1485.3369539097594 439.12689335474863L1485.3369539097594 439.12689335474863L1488.8152773857564 429.70733412782397Q1496.6361040833408 432.5807317819088 1501.6267421141197 433.8121879193737Q1506.595775651259 435.0220395631989 1511.3703687456405 435.0220395631989L1511.3703687456405 435.0220395631989Q1529.9070242885336 435.0220395631989 1529.9070242885336 423.24759052954306L1529.9070242885336 423.24759052954306Q1529.9070242885336 420.6550512927748 1528.092246822796 418.6890423715589Q1526.2558648634185 416.72303345034294 1523.2312357538553 415.4699728192383Q1520.1850021506525 414.2169121881337 1516.3610067764193 412.8774335824701Q1512.5154069085465 411.5379549768065 1508.540180078835 410.4145213075402Q1504.5433487554842 409.26948314463425 1500.697748887611 407.411496691617Q1496.8737535133782 405.55351023859976 1493.8275199101754 403.3066429000673Q1490.8028908006122 401.05977556153476 1488.9665088412348 397.49503411097845Q1487.151731375497 393.9302926604221 1487.151731375497 389.4365579833571L1487.151731375497 389.4365579833571Q1487.151731375497 386.71439178475043 1488.0159111210864 383.86259862430535Q1488.9016953603154 381.01080546386027 1491.2781896606866 377.85654939245893Q1493.676288454697 374.70229332105754 1497.2410299052535 372.32579902068665Q1500.8273758494497 369.927700226676 1506.7902160940166 368.37217668461506Q1512.7530563385835 366.8166531425541 1520.2714201252115 366.8166531425541Z " fill="#8aaae5" transform="matrix(0.5668947839959254,0,0,0.5668947839959255,0,67.9198824087913)"/></g></svg>